# xmcd CD database file generated by OrangeCD 5.2
#
# Track frame offsets:
#	150
#	35493
#	52399
#	85523
#	136075
#	162716
#	191218
#	210109
#	249253
#	278154
#
# Disc length: 3989 seconds
#
# Revision: 0
# Processed by: cddbd v1.5.1PL0 Copyright (c) Steve Scherf et al.
# Submitted via: OrangeCD 5.2
#
DISCID=890f930a
DTITLE=Van Morrison - Masonic Mysteries [CDTwo)
DYEAR=1900
DGENRE=Blues
TTITLE0=Lonely Avenue
TTITLE1=Cleaning Windows
TTITLE2=Vanlose Stairway
TTITLE3=Moondance - My Funny Valentine
TTITLE4=Gloria
TTITLE5=Route 66
TTITLE6=It's All Over Now, Baby Blue
TTITLE7=In The Garden - Daring Night
TTITLE8=What'd I Say
TTITLE9=Northern Muse (Solid Ground) - No Prima Dona
EXTD=
EXTT0=
EXTT1=
EXTT2=
EXTT3=
EXTT4=
EXTT5=
EXTT6=
EXTT7=
EXTT8=
EXTT9=
PLAYORDER=
